SplineFontDB: 3.0
FontName: Experiment-Sinhala
FullName: Experiment-Sinhala
FamilyName: Experiment-Sinhala
Weight: Regular
Copyright: Copyright (c) 2015, Pathum Egodawatta
UComments: "2015-9-29: Created with FontForge (http://fontforge.org)"
Version: 0.001
ItalicAngle: 0
UnderlinePosition: -99
UnderlineWidth: 49
Ascent: 750
Descent: 250
InvalidEm: 0
LayerCount: 4
Layer: 0 0 "Back" 1
Layer: 1 0 "Fore" 0
Layer: 2 0 "Back 3" 1
Layer: 3 0 "s1" 1
PreferredKerning: 4
XUID: [1021 779 -1439063335 14876943]
FSType: 0
OS2Version: 0
OS2_WeightWidthSlopeOnly: 0
OS2_UseTypoMetrics: 1
CreationTime: 1443542790
ModificationTime: 1460594832
PfmFamily: 17
TTFWeight: 400
TTFWidth: 5
LineGap: 122
VLineGap: 0
OS2TypoAscent: 879
OS2TypoAOffset: 0
OS2TypoDescent: -250
OS2TypoDOffset: 0
OS2TypoLinegap: 122
OS2WinAscent: 879
OS2WinAOffset: 0
OS2WinDescent: 49
OS2WinDOffset: 0
HheadAscent: 779
HheadAOffset: 0
HheadDescent: -27
HheadDOffset: 0
OS2CapHeight: 0
OS2XHeight: 0
OS2Vendor: 'PfEd'
Lookup: 4 0 0 "'abvs' Above Base Substitutions in Sinhala lookup 0" { "'abvs' Above Base Substitutions in Sinhala lookup 0-1"  "'abvs' Above Base Substitutions in Sinhala lookup 0-2"  } ['abvs' ('DFLT' <'dflt' > 'sinh' <'dflt' > ) ]
Lookup: 260 0 0 "'blwm' Below Base Mark in Sinhala lookup 1" { "'blwm' Below Base Mark in Sinhala lookup 1-1"  } ['blwm' ('DFLT' <'dflt' > 'sinh' <'dflt' > ) ]
Lookup: 260 0 0 "'abvm' Above Base Mark in Sinhala lookup 1" { "'abvm' Above Base Mark in Sinhala lookup 1-1"  } ['abvm' ('DFLT' <'dflt' > 'sinh' <'dflt' > ) ]
MarkAttachClasses: 1
DEI: 91125
Encoding: Custom
UnicodeInterp: none
NameList: sinhala
DisplaySize: -96
AntiAlias: 1
FitToEm: 1
WinInfo: 0 15 9
BeginPrivate: 0
EndPrivate
Grid
-1064.58691406 397.856445312 m 0
 2085.41308594 397.856445312 l 1024
-1064.58691406 345.561523438 m 0
 2085.41308594 345.561523438 l 1024
-1064.58691406 454.252929688 m 0
 2085.41308594 454.252929688 l 1024
-1064.58691406 69.2802734375 m 0
 2085.41308594 69.2802734375 l 1024

StartChar: si_Tta
Encoding: 32 3495 0
GlifName: si_T_ta
Width: 725
VWidth: -14
Flags: HMW
LayerCount: 4
Back
SplineSet
366 329 m 1
 343 338 300 345 273 343 c 0
 202 338 111 299 111 197 c 0
 111 109 208 49 341 48 c 0
 535.997070312 46.5341796875 604 192 608 317 c 0
 614 514 505 654 338 657 c 4
 212.004456221 659.263393002 113 583 110 583 c 5
 82 627 l 4
 82 627 198.998103574 712.665166952 346 712 c 4
 567 711 690 549 690 312 c 0
 690 103 571 -59 331 -59 c 0
 148 -59 46 50 46 176 c 0
 46 321 165 394 276 398 c 0
 338 400 378 379 378 379 c 1
 366 329 l 1
EndSplineSet
Fore
SplineSet
364 334 m 5
 338 346 304.00000415 351.999931524 271 350 c 4
 200.927333047 345.851476962 128.112565124 302.786638579 127 218 c 0
 126.000224276 140.006064435 182.000000043 63.1142640302 345 62 c 0
 519.999023438 60.8037109375 597.574831437 192.371504158 608 317 c 0
 624 509.99127907 504.998449807 650.972698793 338 654 c 0
 212.004882812 656.07237566 106 589 103 589 c 1
 82 627 l 0
 82 627 198.998047455 706.665167206 346 706 c 0
 567 705 691.999785254 549.000009061 682 312 c 0
 673.189453125 103.185546875 568 -59 338 -59 c 0
 165 -59 45.1310551471 40.0029963259 46 176 c 0
 46.9264720891 321.000488446 164.985696076 394.418893422 276 398 c 0
 338 400 378 379 378 379 c 1
 364 334 l 5
EndSplineSet
Layer: 2
SplineSet
376 272 m 5
 230 288 127 252 129 158 c 4
 130 94 183 42 323 43 c 4
 492 44 600.697035743 173.225457669 609 326 c 4
 619 510 515.696888588 659.023400164 322 648 c 4
 199 641 106 580 103 580 c 5
 80 627 l 5
 120 651 225 706 353 706 c 4
 570 705 690 537 680 321 c 4
 670.103193061 107.228970128 547 -56 301 -58 c 4
 165 -59 46 8 46 137 c 4
 46 291 205 335 327 328 c 5
 337 388 304 438 212 438 c 5
 186 357 l 5
 135 350 100 379 109 425 c 4
 119 481 177 500 224 500 c 4
 300 500 383 469 384 359 c 4
 384 323 376 272 376 272 c 5
EndSplineSet
Layer: 3
EndChar

StartChar: si_Pa
Encoding: 44 3508 1
GlifName: si_P_a
Width: 776
VWidth: -24
Flags: HMW
AnchorPoint: "si_MaU" 710 158.28 mark 0
AnchorPoint: "si_hal" 639 516 basechar 0
LayerCount: 4
Back
SplineSet
512 352 m 1
 452 332 l 1
 444 357 437 384 437 426 c 0
 438 512 509 556 570 556 c 0
 653 556 705 509 705 429 c 0
 705 351 618 309 618 309 c 1
 602 326 l 1
 625 355 641 384 641 424 c 0
 641 460 612 494 563 494 c 0
 526 494 491 470 491 427 c 0
 491 375 512 352 512 352 c 1
119 209 m 0
 118 124 203 55 388 55 c 4
 553 55 659 127 660 206 c 0
 662 318 549 347 452 332 c 1
 484 383 l 1
 616 395 740 331 736 193 c 0
 731 29 564 -49 383 -49 c 0
 189 -49 38 33 40 180 c 0
 42 339 208 394 316 384 c 1
 282 345 l 1
 289 365 298 386 298 415 c 0
 297 463 239 505 171 490 c 0
 204 511 l 1
 145 405 l 1
 104 407 77 432 78 467 c 0
 80 527 142 557 202 557 c 0
 272 557 344 517 346 439 c 0
 347 402 341 370 332 333 c 1
 208 351 120 287 119 209 c 0
EndSplineSet
Fore
SplineSet
512 352 m 5
 452 333 l 5
 444 358 437 384 437 426 c 4
 438 512 509 556 570 556 c 4
 653 556 705 509 705 429 c 4
 705 351 618 309 618 309 c 5
 602 326 l 5
 625 355 641 384 641 424 c 4
 641 460 612 494 563 494 c 4
 526 494 491 470 491 427 c 4
 491 375 512 352 512 352 c 5
119 209 m 4
 118 124 203 55 388 55 c 4
 553 55 663.451154009 127.008854445 665 216 c 4
 666.775330903 318.004157759 549 348 452 333 c 5
 484 383 l 5
 616 395 740 331 736 193 c 4
 731 29 564 -49 383 -49 c 4
 189 -49 38 33 40 180 c 4
 42 339 208 394 316 384 c 5
 282 345 l 5
 289 365 298 386 298 415 c 4
 297 463 239 505 171 490 c 4
 204 511 l 5
 145 405 l 5
 104 407 77 432 78 467 c 4
 80 527 142 557 202 557 c 4
 272 557 344 517 346 439 c 4
 347 402 341 370 332 333 c 5
 208 351 120 287 119 209 c 4
EndSplineSet
Layer: 2
Layer: 3
EndChar

StartChar: si_Va
Encoding: 53 3520 2
GlifName: si_V_a
Width: 726
VWidth: -14
Flags: HMW
AnchorPoint: "si_hal" 500 638 basechar 0
AnchorPoint: "si_MaU" 669 211 basechar 0
LayerCount: 4
Back
SplineSet
376 272 m 1
 230 288 127 252 129 158 c 0
 130 94 203 42 343 43 c 0
 512 44 609 173 609 326 c 0
 609 510 506 650 312 648 c 0
 199 647 96 585 93 585 c 1
 70 632 l 1
 110 656 215 706 343 706 c 0
 560 705 680 537 680 321 c 0
 680 107 567 -56 321 -58 c 0
 185 -59 46 8 46 137 c 0
 46 291 205 335 327 328 c 1
 337 388 304 438 212 438 c 1
 186 357 l 1
 135 350 100 379 109 425 c 0
 119 481 177 500 224 500 c 0
 300 500 383 469 384 359 c 0
 384 323 376 272 376 272 c 1
EndSplineSet
Fore
SplineSet
376 274 m 1
 230 290 125 245 129 158 c 0
 131.939782368 94.0597335036 204.999023438 55.1953125 345 56 c 0
 519 57 618 173 618 326 c 0
 618 510 506.858398438 653.692382812 311 648 c 4
 184.954101562 644.3359375 104 583 101 583 c 5
 81 630 l 1
 120 657 215 706 343 706 c 0
 560 705 680 537 680 321 c 0
 680 107 571.002314781 -56.4236373831 335 -58 c 0
 179 -59.0419921875 49.3495196644 8.04349292099 46 137 c 0
 42 291 219 325 341 318 c 1
 351 378 304 428 212 428 c 1
 186 347 l 1
 135 340 100 369 109 415 c 0
 119 471 177 490 224 490 c 0
 300 490 380 453 384 349 c 0
 385.383592396 313.026597713 376 274 376 274 c 1
EndSplineSet
Layer: 2
Layer: 3
EndChar

StartChar: si_Ra
Encoding: 51 3515 4
GlifName: si_R_a
Width: 676
VWidth: -5
Flags: HMW
LayerCount: 4
Back
SplineSet
572 802 m 1
 572 710 479 648 367 574 c 0
 269 516 138 408 138 258 c 0
 138 131 217 53 346 53 c 0
 476 53 548 130 549 251 c 0
 550 382 450 451 346 451 c 0
 227 451 161 366 161 366 c 1
 197 450 l 0
 196 453 252 511 364 513 c 0
 470 514 626 446 626 250 c 0
 626 82 528 -44 347 -44 c 0
 156 -44 62 85 62 252 c 0
 62 531 375 624 453 726 c 1
 503 834 l 1
 553 843 572 823 572 802 c 1
EndSplineSet
Fore
SplineSet
572 785 m 5
 572 707.07960199 505.435520481 660.37821634 397 594 c 0
 269 516 124 415 124 245 c 0
 124 138 198 52 344 52 c 0
 482.43902439 52 555.853658537 150 559 249 c 0
 563.389876995 386.393771167 476.021276596 462 351 462 c 0
 192.248908297 462 132 339 132 339 c 1
 164 428 l 0
 163 431 238.986328125 520.034179688 371 521 c 0
 491.497138444 521.911963619 642.462194161 432.852262126 639 233 c 0
 635.996909231 71.001953125 522.116838488 -51 338 -51 c 0
 145 -51 43.8555790539 94.1252878644 54 252 c 0
 70.9033203125 515.061523438 375 604 473 736 c 1
 513 834 l 1
 555.753623188 835.307692308 572 811.384615385 572 785 c 5
EndSplineSet
Layer: 2
Layer: 3
EndChar

StartChar: si_Ca
Encoding: 25 3488 5
GlifName: si_C_a
Width: 748
VWidth: -14
Flags: HMW
LayerCount: 4
Back
SplineSet
10 322 m 1
 381 322 l 1
 381 264 l 1
 93 264 l 1
 9 252 l 1
 10 322 l 1
311 266 m 1
 320 317 l 1
 314 359 l 1
 314 359 307 420 201 420 c 0
 174 348 l 1
 145 333 106 352 112 404 c 0
 118 464 179 480 236 479 c 0
 377 478 391 362 391 362 c 0
 381 264 l 1
 311 266 l 1
264 269 m 1
 262 269 127 247 126 173 c 0
 125 93 200 58 324 57 c 0
 500 56 553 200 553 336 c 0
 553 513 469 639 326 640 c 0
 186 641 84 568 81 568 c 1
 56 614 l 0
 95 635 205 695 333 695 c 0
 533 694 632 538 632 331 c 0
 632 113 534 -37 315 -37 c 0
 135 -37 52 43 52 132 c 0
 52 204 98 251 153 268 c 1
 264 269 l 1
EndSplineSet
Fore
SplineSet
406 262 m 1
 260 278 155 239 159 152 c 4
 161.939453125 88.0595703125 234.999023438 41.1953125 375 42 c 0
 549 43 638 173 638 326 c 0
 638 510 537.858398438 658.692382812 342 653 c 0
 215.954101562 649.3359375 127 583 124 583 c 1
 101 623 l 1
 140 650 245 706 373 706 c 0
 590 705 710 537 710 321 c 0
 710 107 601.001953125 -56.423828125 365 -58 c 0
 209 -59.0419921875 79.8486328125 2.0576171875 76 131 c 4
 72 265 235 325 357 318 c 1
 367 378 334 428 242 428 c 1
 216 347 l 1
 165 340 130 369 139 415 c 0
 149 471 207 490 254 490 c 0
 330 490 410 453 414 349 c 0
 415.383789062 313.026367188 406 262 406 262 c 1
10 316 m 1
 411 322 l 1
 406 264 l 1
 113 264 l 1
 9 252 l 1
 10 316 l 1
EndSplineSet
Layer: 2
SplineSet
317.2265625 290.141601562 m 5
 309.536132812 372.172851562 l 5
 309.536132812 372.172851562 286.46484375 416.264648438 201.357421875 416.264648438 c 4
 195.205078125 356.279296875 l 5
 125.991210938 355.25390625 l 5
 118.813476562 365.5078125 114.19921875 392.680664062 114.19921875 409.599609375 c 4
 114.19921875 459.84375 172.133789062 479.326171875 219.301757812 479.326171875 c 4
 310.561523438 479.326171875 385.415039062 437.28515625 393.618164062 328.081054688 c 4
 390.541992188 225.029296875 l 5
 317.2265625 290.141601562 l 5
390.541992188 225.029296875 m 5
 389.516601562 225.029296875 354.653320312 225.541992188 311.586914062 225.541992188 c 4
 235.561523438 225.541992188 134.194335938 217.26953125 134.194335938 152.739257812 c 5
 136.30078125 117.782226562 187.788085938 54.419921875 329.53125 53.2763671875 c 4
 479.75 52.064453125 546.9140625 170.841796875 546.9140625 336.284179688 c 5
 546.9140625 521.017578125 480.776367188 628.779296875 311.586914062 636.2109375 c 5
 224.428710938 632.109375 74.208984375 569.047851562 71.1328125 569.047851562 c 5
 54.7265625 610.576171875 l 4
 92.1533203125 637.236328125 222.377929688 696.196289062 312.612304688 695.68359375 c 4
 522.817382812 694.658203125 628.9453125 548.540039062 628.9453125 331.157226562 c 4
 628.9453125 112.749023438 541.787109375 -37.470703125 325.4296875 -37.470703125 c 4
 169.057617188 -37.470703125 55.751953125 25.078125 55.751953125 147.099609375 c 4
 55.751953125 277.32421875 203.408203125 289.116210938 203.408203125 289.116210938 c 5
 317.2265625 292.192382812 l 5
 390.541992188 225.029296875 l 5
EndSplineSet
Layer: 3
EndChar

StartChar: si_Sa
Encoding: 56 3523 6
GlifName: si_S_a
Width: 865
VWidth: -24
Flags: W
HStem: -45 119<202.897 360.075 540.827 697.773> 322 47<9 53.7692 540 691.72> 335 12<170 251.778>
VStem: 81 62<127.684 244.94> 125 286<429 518> 436 35<147.885 214> 720 70<371.635 470.961> 751 64<124.733 268.005>
AnchorPoint: "si_MaU" 814 185.28 basechar 0
AnchorPoint: "si_MaI" 454 559 basechar 0
AnchorPoint: "si_hal" 706 526 basechar 0
LayerCount: 4
Back
SplineSet
29 375 m 1
 405 383 l 1
 407 332 l 1
 113 325 l 1
 28 312 l 1
 29 375 l 1
557 363 m 1
 546 381 l 1
 642 407 815 371 815 186 c 0
 815 64 734 -35 609 -35 c 0
 484 -35 441 61 426 126 c 1
 424 123 473 129 471 126 c 1
 444 25 381 -34 280 -34 c 0
 144 -35 92 55 94 154 c 0
 96 274 175 336 207 337 c 1
 278 334 l 1
 213 321 166 267 166 183 c 0
 166 103 222 68 290 69 c 0
 350 70 425 91 425 215 c 1
 484 215 l 1
 480 91 547 64 617 64 c 0
 711 64 743 129 744 195 c 0
 745 281 669 367 502 332 c 1
 497 351 492 368 492 388 c 0
 490 500 573 557 647 557 c 0
 714 557 780 522 780 442 c 0
 780 346 697 320 697 320 c 1
 681 327 l 1
 681 327 719 381 720 430 c 0
 720 468 702 500 643 501 c 0
 597 502 558 473 553 421 c 0
 549 375 564 347 564 347 c 1
 557 363 l 1
366 350 m 1
 369 384 371 413 359 441 c 0
 345 476 300 498 250 493 c 0
 199 409 l 1
 169 412 135 429 135 466 c 0
 135 533 215 558 262 558 c 0
 342 558 401 524 415 439 c 0
 423 385 414 353 407 333 c 1
 366 350 l 1
EndSplineSet
Fore
SplineSet
9 369 m 5xc4
 395 371 l 5
 397 336 l 1
 93 335 l 1xa4
 8 322 l 1
 9 369 l 5xc4
511 363 m 1
 540 374 l 1
 636 399 815 371 815 186 c 0
 815 64 744 -45 619 -45 c 0
 514 -45 451 22 436 126 c 1
 434 123 473 129 471 126 c 1
 454 25 377.997070312 -43.1982421875 267 -44 c 0
 140.999023438 -44.91015625 79.2626953125 54.9951171875 81 154 c 0
 83 268 170 346 202 347 c 1
 266 338 l 1
 201 325 142.135742188 268.880859375 143 193 c 0
 143.797851562 122.950195312 202.1484375 76.6005859375 270 76 c 0
 329.133397206 75.476582624 433 80 436 214 c 1
 471 215 l 1
 474 108 563.994140625 74.404296875 624 74 c 0
 697.98046875 73.5009765625 749 120 751 195 c 0xb5
 753.292673339 280.975250211 663 373 506 328 c 1
 501 347 496.392081499 368.003843567 496 388 c 0
 494 490 573 558 657 560 c 0
 723.981445312 561.594726562 790 522 790 442 c 0
 790 346 697 320 697 320 c 1
 681 327 l 1
 681 327 720 364.989796981 720 414 c 0xa6
 720 455 689.879720389 503.047384709 626 499 c 0
 589.995117188 496.71875 537 462 532 401 c 0
 528.227930222 354.980748707 548 343 548 343 c 1
 511 363 l 1
366 354 m 1
 369 388 371 407 359 435 c 0
 345 470 280 498 230 493 c 0
 179 409 l 1
 149 412 125 429 125 466 c 0
 125 533 197 558 250 558 c 0
 330 558 407 518 411 433 c 0x8c
 413.56640625 378.470703125 404 357 397 337 c 1
 366 354 l 1
EndSplineSet
Layer: 2
Layer: 3
EndChar

StartChar: si_Ka
Encoding: 19 3482 7
GlifName: si_K_a
Width: 1035
VWidth: -24
Flags: HMW
AnchorPoint: "si_hal" 833 494 basechar 0
LayerCount: 4
Back
SplineSet
241 366 m 5
 253 389 257 410 256 428 c 4
 254 470 236.012695312 492 196 492 c 4
 158 492 122 445 118 411 c 5
 148 356 l 5
 134 332 111 320 89 321 c 4
 64 323 41 344 41 390 c 4
 41 460 98 553 205 551 c 4
 292 550 321 468 294 404 c 4
 279 368 310 392 297 375 c 5
 241 366 l 5
270 408 m 1
 280 417 280 407 292 415 c 1
 379 493 516 563 655 562 c 0
 836 561 993 455 995 262 c 0
 997 90 892 -35 739 -33 c 0
 701 -32 674 -27 659 -20 c 1
 674 28 l 1
 698 16 736 14 760 16 c 0
 865 23 916.447795746 143.266822424 908 250 c 0
 895.975535444 401.92238891 771 465 610 465 c 0
 517 465 397 442 298 353 c 1
 285 350 l 1
 270 408 l 1
15 97 m 0
 82 208 177 331 290 419 c 1
 297 364 l 0
 291 359 285 349 279 344 c 1
 174 255 90 139 51 72 c 1
 51 72 10 88 15 97 c 0
102 165 m 1
 110 169 119 172 126 172 c 0
 174 173 168 67 251 67 c 0
 290 67 350 94 351 190 c 1
 404 190 l 0
 405 87 467 66 517 67 c 0
 577 68 622 108 622 184 c 0
 622 263 556 356 402 356 c 0
 340 356 274 329 241 311 c 1
 295 364 l 1
 308 368 353 405 430 406 c 0
 515 407 685 358 685 178 c 0
 685 64 605 -35 500 -35 c 0
 386 -35 373 48 373 48 c 1
 373 48 352 -34 249 -34 c 0
 91 -35 135 169 80 120 c 0
 102 165 l 1
EndSplineSet
Fore
SplineSet
244 366 m 1
 256 389 260 404 259 422 c 0
 257 464 222.848632812 499.623046875 183 496 c 0
 139 492 99 455 105 411 c 1
 135 356 l 1
 121 332 97.9873046875 319.743164062 76 321 c 0
 41 323 18 354 18 400 c 0
 18 480 91.990234375 557.337890625 199 551 c 0
 278.866210938 546.26953125 324 468 297 404 c 0
 282 368 297 392 284 375 c 1
 244 366 l 1
270 408 m 1
 280 417 280 407 292 415 c 1
 379 493 516.004888066 560.46414241 655 562 c 0
 836 564 993 438 995 245 c 0
 997 73 906 -35 763 -33 c 0
 724.990234375 -32.46875 694 -22 679 -15 c 1
 690 39 l 1
 714 27 755.981445312 20.23046875 780 22 c 0
 875 29 926.448242188 116.266601562 918 223 c 0
 905.975585938 374.922851562 786 459 625 459 c 4
 532 459 397 442 298 353 c 1
 285 350 l 1
 270 408 l 1
15 92 m 1
 77.96484375 205.337890625 177 331 290 419 c 1
 297 364 l 0
 291 359 285 349 279 344 c 1
 174 255 90 139 51 72 c 1
 51 72 25 83 15 92 c 1
102 165 m 1
 110 169 119 172 126 172 c 0
 174 173 168 74 251 74 c 0
 290 74 350 101 351 197 c 1
 386 197 l 0
 387 94 467 73 517 74 c 0
 567 75 612 118 612 194 c 0
 612 273 556 352 402 352 c 0
 340 352 274 329 241 311 c 1
 295 364 l 1
 308 368 343 398 420 399 c 0
 505 400 685 358 685 178 c 0
 685 64 605 -44 500 -44 c 0
 386 -44 373 39 373 39 c 1
 373 39 352 -43 249 -43 c 0
 91 -44 135 169 80 120 c 0
 102 165 l 1
EndSplineSet
Layer: 2
SplineSet
9.326171875 67.880859375 m 4
 119.326171875 281.57421875 363.939453125 524.341796875 586.62109375 533.0859375 c 4
 741.192382812 539.15625 885.725585938 463.5625 900.004882812 265.268554688 c 4
 908.497070312 124.8046875 857.6171875 -34.4140625 706.591796875 -34.8349609375 c 4
 671.2109375 -34.93359375 644.04296875 -23.37890625 644.04296875 -23.37890625 c 5
 655.322265625 29.4287109375 l 5
 655.322265625 29.4287109375 673.873046875 21.8466796875 699.412109375 21.806640625 c 4
 785.055664062 21.6630859375 828.763671875 102.141601562 824.553710938 211.435546875 c 4
 819.166015625 351.30078125 728.966796875 431.989257812 593.798828125 441.000976562 c 4
 504.961914062 447.6640625 416.952148438 415.846679688 336.42578125 365.911132812 c 5
 205.13671875 271.62109375 97.2744140625 117.798828125 50.8544921875 37.119140625 c 5
 50.8544921875 37.119140625 4.4423828125 58.3955078125 9.326171875 67.880859375 c 4
101.098632812 125.302734375 m 5
 189.37109375 136.614257812 165.497070312 68.2265625 250.805664062 67.880859375 c 4
 289.783203125 67.72265625 341.271484375 94.3310546875 342.065429688 189.537109375 c 5
 395.8984375 189.389648438 l 4
 397.41796875 86.7236328125 456.942382812 67.1943359375 491.772460938 67.880859375 c 4
 552.311523438 69.07421875 572.265625 108.717773438 572.265625 174.521484375 c 4
 572.265625 258.342773438 505.046875 335.881835938 375.903320312 336.8125 c 4
 334.630859375 337.111328125 309.022460938 332.555664062 276.953125 320.126953125 c 5
 334.375 373.447265625 l 5
 347.348632812 377.874023438 363.5078125 385.955078125 394.360351562 386.822265625 c 4
 499.364257812 389.775390625 648.14453125 341.606445312 648.14453125 166.318359375 c 4
 648.14453125 46.3330078125 599.326171875 -34.4091796875 493.823242188 -34.830078125 c 4
 379.723632812 -35.283203125 372.314453125 53.525390625 372.314453125 53.525390625 c 5
 372.314453125 53.525390625 350.747070312 -33.6240234375 248.2421875 -34.02734375 c 4
 99.3388671875 -34.615234375 131.34765625 130.942382812 75.9765625 77.109375 c 4
 101.098632812 125.302734375 l 5
222.607421875 343.198242188 m 5
 271.935546875 386.706054688 258.552734375 475.928710938 176.46484375 475.555664062 c 4
 138.796875 475.383789062 107.247070312 443.416015625 108.7890625 409.3359375 c 5
 153.90625 333.45703125 l 4
 96.484375 303.073242188 l 4
 63.5380859375 307.661132812 18.951171875 329.982421875 15.478515625 387.745117188 c 4
 10.6318359375 468.33984375 87.56640625 534.123046875 175.439453125 536.939453125 c 4
 307.852539062 541.184570312 336.092773438 430.3125 305.266601562 380.625 c 4
 280.954101562 341.435546875 297.93359375 359.189453125 260.034179688 327.3046875 c 5
 222.607421875 343.198242188 l 5
EndSplineSet
Layer: 3
EndChar

StartChar: uni0061
Encoding: 560 97 8
GlifName: uni0061
Width: 626
VWidth: 153
Flags: W
HStem: -13 74<213.748 329.875> 10 39<565.076 605>
VStem: 55 126<92.3691 210.483> 98 88<401 503.572>
LayerCount: 4
Back
SplineSet
55 125 m 0
 55 226 125 296 280 331 c 0
 372 352 446 356 446 356 c 1
 446 273 l 1
 446 273 382 299 305 288 c 0
 228 277 183 218 181 160 c 0
 179 96 216.876403087 62.3764722148 274 61 c 0
 357 59 414 118 420 159 c 1
 448 119 l 1
 448 119 398 -13 218 -13 c 0
 127 -13 55 32 55 125 c 0
95 539 m 1
 144 566 250 611 349 611 c 0
 485 611 529 575 532 443 c 0
 534 365 517 172 534 101 c 0
 543 63 563 44 605 49 c 1
 616 10 l 1
 595 2 540 -28 482 -10 c 0
 438 4 429 50 423 109 c 1
 413 109 l 1
 425 198 428 399 414 457 c 0
 393 546 332 561 287 553 c 0
 229 542 205 507 174 474 c 1
 230 557 l 1
 209 512 192 469 186 401 c 1
 98 392 l 1
 92 459 95 539 95 539 c 1
EndSplineSet
Fore
SplineSet
55 125 m 0xa0
 55 226 125 296 280 331 c 0
 372 352 446 356 446 356 c 1
 446 273 l 1
 446 273 382 299 305 288 c 0
 228 277 183 218 181 160 c 0
 179 96 216.876403087 62.3764722148 274 61 c 0
 357 59 414 118 420 159 c 1
 448 119 l 1
 448 119 398 -13 218 -13 c 0
 127 -13 55 32 55 125 c 0xa0
95 539 m 1
 144 566 250 611 349 611 c 0
 485 611 529 575 532 443 c 0
 534 365 517 172 534 101 c 0
 543 63 563 44 605 49 c 1
 616 10 l 1
 595 2 540 -28 482 -10 c 0
 438 4 429 50 423 109 c 1
 413 109 l 1
 425 198 428 399 414 457 c 0
 393 546 332 561 287 553 c 0
 229 542 205 507 174 474 c 1
 230 557 l 1
 209 512 192 469 186 401 c 1
 98 392 l 1x50
 92 459 95 539 95 539 c 1
EndSplineSet
Layer: 2
Layer: 3
EndChar

StartChar: si_Ta
Encoding: 38 3501 9
GlifName: si_T_a
Width: 1038
VWidth: -24
Flags: HW
HStem: -44 39<667.022 821.68> -41 113<281.211 510.25> 353 40<352.055 523.918> 468 93<521.638 724.167>
AnchorPoint: "si_hal" 803 516 basechar 0
LayerCount: 4
Back
SplineSet
264 366 m 5
 276 389 280 410 279 428 c 4
 277 470 242.848371434 495.622579221 203 492 c 4
 159 488 129 445 125 411 c 5
 155 356 l 5
 141 332 118 320 96 321 c 4
 71 323 48 344 48 390 c 4
 48 460 104.987915524 552.189023161 212 551 c 4
 302 550 344 468 317 404 c 4
 302 368 317 392 304 375 c 5
 264 366 l 5
771 11 m 4
 889 14 938.502929688 137.25390625 925 258 c 4
 910.423828125 388.341796875 786 461 635 460 c 4
 530.997070312 459.311523438 449 443 342 367 c 5
 325 355 336 360 322 348 c 5
 225 269 176 231 86 89 c 5
 86 89 45 110 50 119 c 4
 120 233 204 315 302 406 c 5
 309 412 318 419 325 424 c 5
 426 507 539.997910809 560.321041636 669 561 c 4
 859 562 994 449 1008 281 c 4
 1022.12011719 111.560546875 911 -38 762 -38 c 4
 703 -38 671 -20 671 -20 c 5
 687 28 l 5
 687 28 716.98046875 9.626953125 771 11 c 4
126 172 m 5
 227 224 210 65 410 62 c 4
 542 60 608 124 610 195 c 4
 613 308 520 343 427 346 c 4
 345 349 284 319 251 301 c 5
 303 365 l 5
 316 369 389 394 451 393 c 4
 561 391 681 343 671 173 c 4
 665 68 598 -41 410 -41 c 4
 157 -41 173 192 114 134 c 5
 126 172 l 5
EndSplineSet
Fore
SplineSet
282 382 m 1x30
 294 405 298 426 297 444 c 0
 295 486 258.848632812 509.623046875 209 506 c 0
 164.934570312 502.796875 139 475 145 431 c 1
 185 376 l 1
 171 352 148.001953125 340.022460938 126 341 c 0
 81 343 61 374 61 420 c 0
 61 500 127.983357016 568.181256479 225 564 c 0
 307.926313587 560.426013359 357 485 330 421 c 0
 315 385 330 409 317 392 c 1
 282 382 l 1x30
748 7 m 4xb0
 886 10 921.648015708 170.319922431 895 279 c 0
 863.322626004 408.191587876 730.228515625 466.868164062 595 462 c 0
 503.25390625 458.697265625 432 431.771484375 345 374 c 1
 328 362 339 367 325 355 c 1
 228 276 166 231 66 99 c 1
 66 99 31.1274157115 118.543478625 37 127 c 0
 137 271 207 322 305 413 c 1
 312 419 321 420 328 425 c 1
 420 505 533.108075498 555.572965339 642 561 c 0
 831.928870362 570.465812707 981 450 995 282 c 0
 1009.12011719 112.560546875 904 -44 745 -44 c 0
 686 -44 649 -26 649 -26 c 1
 664 24 l 5
 664 24 693.975585938 5.8251953125 748 7 c 4xb0
96 162 m 1
 111.827370188 168.80184504 125.977539062 177.05859375 139 177.575195312 c 0
 225.53125 181.009765625 242.237304688 61.634765625 410 59 c 0
 541.998046875 56.927734375 621.387695312 124.006835938 620 205 c 0
 617.891601562 328.076171875 483.087890625 345.88671875 432 346 c 0
 350.086914062 346.181640625 292 328 259 310 c 1
 296 362 l 1
 309 366 372.00390625 395.240234375 444 394 c 0
 544.005160872 392.277269894 679 345 679 195 c 0
 679 89.8291015625 608 -47 410 -47 c 0x70
 280.072265625 -47 193.452148438 27.7138671875 177 87.9970703125 c 0
 161.305664062 145.500976562 119.395507812 147.443359375 74 124 c 1
 96 162 l 1
EndSplineSet
Layer: 2
SplineSet
247.826171875 365.756835938 m 5
 284.606445312 440.026367188 243.995117188 496.55859375 201.68359375 497.6015625 c 4
 158.612304688 498.662109375 133.166992188 465.461914062 128.880859375 431.381835938 c 5
 158.6171875 376.010742188 l 5
 144.875 352.084960938 121.26953125 339.463867188 99.6572265625 340.846679688 c 4
 73.9462890625 342.491210938 51.056640625 363.958007812 50.951171875 409.791015625 c 4
 50.7890625 480.055664062 104.263671875 565.857421875 216.0390625 558.985351562 c 4
 303.006835938 553.638671875 331.68359375 473.038085938 304.228515625 408.823242188 c 4
 289.037109375 373.291992188 300.887695312 391.560546875 287.81640625 374.985351562 c 5
 247.826171875 365.756835938 l 5
650.8046875 -22.5302734375 m 13
 664.133789062 34.111328125 l 4
 673.158203125 34.099609375 692.454101562 26.2783203125 721.043945312 26.2783203125 c 4
 828.709960938 26.2783203125 872.337890625 139.078125 871.305664062 238.608398438 c 4
 869.853515625 378.5703125 750.03125 462.880859375 620.04296875 464.584960938 c 4
 515.595703125 465.955078125 428.328125 437.892578125 342.674804688 382.830078125 c 5
 211.385742188 288.540039062 159.407226562 235.71875 56.5908203125 73.0078125 c 5
 56.5908203125 73.0078125 14.9287109375 94.48828125 20.189453125 103.76953125 c 4
 85.23828125 218.547851562 184.014648438 315.069335938 282.176757812 406.313476562 c 5
 289.81640625 412.305664062 297.509765625 418.155273438 305.248046875 423.856445312 c 5
 390.520507812 496.668945312 514.975585938 555.073242188 628.24609375 556.157226562 c 4
 798.30859375 557.784179688 958.811523438 460.306640625 962.137695312 271.93359375 c 4
 965.504882812 81.2705078125 854.120117188 -24.0751953125 724.120117188 -31.71484375 c 4
 683.104492188 -34.125 658.315429688 -22.5107421875 650.8046875 -22.5302734375 c 13
152.977539062 228.354492188 m 5
 140.852539062 101.243164062 257.12109375 60.1318359375 369.84765625 57.626953125 c 4
 532.9140625 54.0029296875 583.4296875 113.750976562 583.641601562 200.668945312 c 4
 583.879882812 299.25 495.337890625 339.16015625 402.147460938 343.477539062 c 4
 330.133789062 346.815429688 258.362304688 318.712890625 226.29296875 301.157226562 c 5
 283.71484375 365.244140625 l 5
 296.688476562 369.670898438 369.370117188 394.450195312 430.858398438 393.487304688 c 4
 541.220703125 391.759765625 681.171875 347.966796875 670.799804688 178.110351562 c 4
 664.412109375 73.5126953125 595.322265625 -40.947265625 356.517578125 -40.982421875 c 4
 205.581054688 -41.00390625 92.37890625 57.7041015625 120.677734375 189.90234375 c 5
 152.977539062 228.354492188 l 5
EndSplineSet
Layer: 3
EndChar

StartChar: si_Na
Encoding: 42 3505 10
GlifName: si_N_a
Width: 1020
VWidth: -24
Flags: W
HStem: -40 52<632.096 797.04> -35 93<227.499 472.382> 474 87<558.965 769.193> 492 59<199.209 305.265>
VStem: 45 47<176.308 257> 582 72<148.783 291.355> 910 80<141.688 339.483>
AnchorPoint: "si_hal" 788 516 basechar 0
LayerCount: 4
Back
SplineSet
307 366 m 5
 319 389 323 410 322 428 c 4
 320 470 286.012695312 492 246 492 c 4
 208 492 172 445 168 411 c 5
 198 356 l 5
 184 332 161 320 139 321 c 4
 114 323 91 344 91 390 c 4
 91 460 148 553 255 551 c 4
 342 550 387 468 360 404 c 4
 345 368 360 392 347 375 c 5
 307 366 l 5
96 247 m 0
 158 178 261 316 339 408 c 1
 349 417 349 407 361 415 c 1
 449 507 552 561 665 561 c 0
 835 561 982 458 980 265 c 0
 978 111 868.002929688 -37 704 -37 c 0
 640 -37 606 -14 606 -11 c 0
 631 34 l 0
 654 19 692.005358727 10.8787550807 716 12 c 0
 823 17 901 133 900 243 c 0
 899 381 789 473 634 474 c 0
 551 475 467 442 368 353 c 1
 355 350 l 1
 277 259 185 144 81 191 c 1
 96 247 l 0
94 264 m 1
 101 95 244.116210938 56.1787109375 385 62 c 0
 506 67 592 119 592 221 c 0
 592 285 546 331 453 337 c 0
 386 341 320 328 278 301 c 1
 318 346 l 1
 331 350 383 387 465 387 c 0
 575 387 650 327 650 208 c 0
 650 103 572 -35 342 -35 c 0
 165 -35 43 89 45 257 c 1
 94 264 l 1
EndSplineSet
Fore
SplineSet
307 366 m 1x1e
 319 389 323 410 322 428 c 0
 320 470 289.012695312 493 246 492 c 0
 204.011346188 491.02380789 172 455 168 411 c 1
 198 356 l 1
 184 332 161 320 139 321 c 0
 114 323 81 347 81 390 c 0
 81 470 148 553 255 551 c 0
 342 550 387 468 360 404 c 0
 345 368 360 392 347 375 c 1
 307 366 l 1x1e
94 247 m 0
 156 178 261 316 339 408 c 1
 349 417 349 407 361 415 c 1
 449 507 572 561 685 561 c 0
 855 561 992 448 990 255 c 0
 988 101 888.002929688 -40 714 -40 c 4
 640 -40 606 -14 606 -11 c 0
 631 34 l 0
 654 19 702.000976562 10.974609375 726 12 c 4
 843 17 911 133 910 243 c 0
 909 381 804 478 644 474 c 0xae
 561.01953125 471.92578125 467 442 368 353 c 1
 355 350 l 1
 277 259 183 144 79 191 c 1
 94 247 l 0
92 264 m 1
 99 95 254.018554688 55.4599609375 365 58 c 0
 475.989257812 60.5400390625 582 119 582 221 c 0
 582 285 546 331 453 337 c 0
 386 341 330 319 288 292 c 1
 318 346 l 1
 331 350 383 387 465 387 c 0
 565 387 654 329 654 210 c 0
 654 105 572 -35 342 -35 c 0x4e
 165 -35 43 89 45 257 c 1
 92 264 l 1
EndSplineSet
Layer: 2
SplineSet
25.7060546875 83.3212890625 m 0
 135.70703125 297.014648438 354.685546875 541.3203125 592.747070312 550.064453125 c 0
 747.333007812 555.743164062 909.002929688 475.564453125 926.126953125 277.120117188 c 0
 938.224609375 136.918945312 853.490234375 -32.3037109375 702.463867188 -32.724609375 c 0
 667.083984375 -32.8232421875 650.168945312 -21.2685546875 650.168945312 -21.2685546875 c 1
 666.575195312 26.412109375 l 1
 666.575195312 26.412109375 674.873046875 18.8330078125 700.412109375 18.7900390625 c 0
 786.055664062 18.646484375 846.682617188 119.120117188 840.421875 228.4140625 c 0
 832.416015625 368.154296875 719.6328125 447.84765625 594.797851562 452.852539062 c 0
 505.783203125 456.421875 428.206054688 437.952148438 347.678710938 388.016601562 c 1
 216.390625 293.7265625 113.655273438 133.239257812 67.234375 52.5595703125 c 1
 67.234375 52.5595703125 20.8232421875 73.8359375 25.7060546875 83.3212890625 c 0
174.387695312 214.571289062 m 1
 144.741210938 169.486328125 171.624023438 68.28515625 262.05859375 67.9404296875 c 0
 301.037109375 67.7919921875 352.525390625 94.390625 353.318359375 189.596679688 c 1
 407.151367188 189.44921875 l 0
 408.671875 86.783203125 468.197265625 67.1904296875 503.025390625 67.9404296875 c 0
 558.4375 69.1337890625 592.747070312 124.158203125 592.747070312 184.834960938 c 0
 592.747070312 299.41796875 506.049804688 343.943359375 382.029296875 343.537109375 c 0
 320.25 343.3359375 284.387695312 323.899414062 252.317382812 306.34375 c 1
 309.739257812 369.91796875 l 1
 322.713867188 374.344726562 359.508789062 385.482421875 390.232421875 388.419921875 c 0
 474.729492188 396.5 660.935546875 373.965820312 660.935546875 167.916015625 c 0
 660.935546875 53.0576171875 605.965820312 -34.349609375 500.461914062 -34.7705078125 c 0
 386.36328125 -35.2236328125 383.567382812 53.5849609375 383.567382812 53.5849609375 c 1
 383.567382812 53.5849609375 362.000976562 -33.5771484375 259.495117188 -33.9677734375 c 0
 105.465820312 -34.5556640625 104.661132812 125.875 126.194335938 164.327148438 c 0
 174.387695312 214.571289062 l 1
256.931640625 381.197265625 m 1
 293.712890625 455.466796875 240.236328125 494.984375 187.717773438 492.534179688 c 0
 162.075195312 491.3359375 124.328125 470.6484375 120.041992188 436.568359375 c 1
 149.778320312 376.0703125 l 0
 128.487304688 339.00390625 93.47265625 333.344726562 66.7216796875 345.686523438 c 0
 66.7216796875 345.686523438 37.107421875 362.216796875 36.9853515625 414.977539062 c 0
 36.82421875 485.2421875 90.0283203125 553.598632812 186.692382812 553.91796875 c 0
 273.637695312 554.205078125 317.71875 503.859375 321.025390625 444.771484375 c 0
 323.184570312 406.189453125 302.303710938 391.620117188 289.231445312 375.044921875 c 1
 256.931640625 381.197265625 l 1
EndSplineSet
Layer: 3
EndChar

StartChar: si_A
Encoding: 3 3461 13
GlifName: si_A_
Width: 693
VWidth: -17
Flags: HW
HStem: -51.5381 48.3555<232.352 457.535>
VStem: 461 50<295 497.957> 521 28<482.823 498.856> 567 84<343.089 450.968>
AnchorPoint: "si_hal" 367 502 basechar 0
LayerCount: 4
Back
Fore
SplineSet
319 -77.5380859375 m 0
 108.625 -77.1875 7.4326171875 37.0244140625 9 157 c 0
 10.8642893145 305.000976562 138.197132616 391 278 393 c 4
 311.912109375 393.546875 340.2578125 391.401367188 357.384765625 388.52734375 c 5
 358.505859375 478.180664062 295.708007812 514.435546875 226 507 c 5
 170 418 l 5
 124 421 96 458 105 494 c 4
 121 556 180 577 243 577 c 4
 315 577 387 537 401 453 c 4
 410.095703125 398.426757812 394 344 394 344 c 5
 284.8841526 362.869140625 143.782618613 322.513671875 130 189 c 0
 119.526008969 91.2403668877 195.35546875 -15.763671875 363 -15.1826171875 c 0
 484.96875 -14.759765625 557.526367188 30.912109375 620 68.599609375 c 1
 651 27 l 1
 579.354492188 -30.3515625 466.6953125 -77.7841796875 319 -77.5380859375 c 0
461 416.842773438 m 1
 462.64453125 473.158203125 451.786132812 538.805664062 520 578 c 1
 549 556.889648438 l 1
 548.51171875 501.823242188 661 475.326171875 661 406 c 0
 661 333.143554688 579 271.561523438 510 244 c 1
 501 284 l 1
 548 304 577 341.561523438 577 398 c 0
 577 446 521.39453125 478.649414062 521 517.856445312 c 1
 509.118164062 503.653320312 513.6328125 480 513.6328125 431.313476562 c 0
 511 -378 l 1
 461 -378 l 1
 461 416.842773438 l 1
393.465820312 381.448242188 m 5
 394.303710938 381.296875 395.147460938 381.146484375 396 381 c 5
 396 381.776367188 395.05859375 381.853515625 393.465820312 381.448242188 c 5
EndSplineSet
Layer: 2
Layer: 3
EndChar

StartChar: si_U
Encoding: 9 3467 19
GlifName: si_U_
Width: 695
VWidth: -17
Flags: HW
VStem: 576 17<359.232 362>
LayerCount: 4
Back
Fore
SplineSet
130 109 m 0
 118.308256617 -12.4979062619 181.69921875 -176.950195312 392 -189.380859375 c 0
 487.998046875 -195.055664062 580.208007812 -164.137695312 644 -109 c 1
 677 -151 l 1
 629 -195 541.929683719 -254.307842526 380 -259.19140625 c 0
 94.69140625 -267.795898438 -1.58747070744 -75.1777856194 9 55 c 0
 31.611328125 333.016601562 284 391 439 393 c 4
 501.002929688 393.799804688 537 387 566 382 c 5
 566 387 537 363 536 368 c 5
 528 485 451 516 326 498 c 1
 270 419 l 1
 224 422 202.086914062 462.533203125 213 498 c 0
 229 550 290 578 373 578 c 0
 475 578 569 524 583 440 c 4
 592.095703125 385.426757812 580 335 580 335 c 5
 580 333 l 5
 387 363 149.24609375 309.000976562 130 109 c 0
EndSplineSet
Layer: 2
Layer: 3
EndChar

StartChar: si_E
Encoding: 13 3473 23
GlifName: si_E_
Width: 789
VWidth: -14
Flags: HW
HStem: -58 100<237.731 483.285> 264 52<52.3333 113 357 406> 428 62<242 323.758> 653 53<236.092 463.882>
VStem: 76 83<102.019 208.388> 357 57<322.076 396.84> 638 72<205.708 463.176>
LayerCount: 4
Back
SplineSet
166 641 m 1
 173 648 l 1
 197 645.692307692 210.110057236 660.148615767 233 642 c 0
 266.655462185 615.315789474 287.309259483 603.736393043 322 603 c 0
 390.853895268 601.53841317 440.014888651 628.69672912 513 630 c 1
 553 564 l 1
 484.640869682 591.764669918 417.590085091 529.051845151 288 539.301757812 c 0
 197.79326965 554.375870151 195.073619632 610.722344926 135 590 c 1
 166 641 l 1
406 262 m 1
 260 278 155.000457224 239.000021021 159 152 c 0
 161.939453125 88.0595703125 234.999022954 41.1953966836 375 42 c 0
 549 43 638 173 638 326 c 0
 638 507.186544343 534.449042852 654.40649119 332 648 c 0
 205.954101562 644.07421875 117 573 114 573 c 1
 81 613 l 1
 120 643.253012048 225.001113451 706.58985662 353 706 c 0
 582.878338279 705 710 537 710 321 c 0
 710 107 601.001951867 -56.4236398072 365 -58 c 0
 209 -59.0419921875 79.8490260023 2.05762892391 76 131 c 0
 72 265 235 325 357 318 c 1
 367 378 334 428 242 428 c 1
 216 347 l 1
 165 340 130.76031191 368.857746694 139 415 c 0
 149 471 207 490 254 490 c 0
 330 490 409.999457871 452.999979147 414 349 c 0
 415.383789062 313.026367188 406 262 406 262 c 1
10 316 m 1
 411 322 l 1
 406 264 l 1
 113 264 l 1
 9 252 l 1
 10 316 l 1
EndSplineSet
Fore
SplineSet
10 306 m 1
 401 312 l 1
 396 254 l 1
 103 254 l 1
 9 242 l 1
 10 306 l 1
396 252 m 1
 250 266.545898438 162.36328125 231.108398438 166 152 c 0
 168.939453125 88.0595703125 244 51.02734375 384 52 c 0
 528 53 658 153 658 326 c 0
 658 435.69921875 617.336914062 488.209960938 566.395507812 537.505859375 c 5
 558.612304688 539.885742188 614.54296875 511.40625 606 511 c 5
 532.521484375 548.9296875 472.771484375 489.498046875 370 515.301757812 c 4
 267.041992188 541.15234375 335.341796875 661.387695312 265 660 c 5
 266 711 l 5
 594.755859375 729.755859375 730 501.908203125 730 301 c 0
 730 87 595.905345568 -51.4925855272 390 -58 c 0
 194.000976562 -64.1943359375 97.06640625 22.064453125 93 131 c 0
 88.2664138843 257.808725074 225 314.625976562 347 308 c 1
 357 368 324 418 232 418 c 1
 206 337 l 1
 155 330 120.760742188 358.857421875 129 405 c 0
 139 461 197 480 244 480 c 0
 320 480 399.999023438 443 404 339 c 0
 405.383789062 303.026367188 396 252 396 252 c 1
525.133789062 582.733398438 m 5
 478 623 420.161132812 648.439453125 355.504882812 648.212890625 c 5
 377.931640625 632.321289062 340.842773438 597.436523438 382 579 c 4
 439.299804688 553.33203125 478 589 525.133789062 582.733398438 c 5
EndSplineSet
Layer: 2
Layer: 3
EndChar

StartChar: si_Ga
Encoding: 21 3484 30
GlifName: si_G_a
Width: 919
VWidth: -24
Flags: HW
HStem: -44.0049 124.96<199.948 401.742> -41.8145 49.4268<562.935 712.187> 451.533 105.07<522.482 699.91> 501.88 50.1201<227.545 313>
VStem: 29.9951 67.9795<179.847 355.129> 798.623 86.2471<136.969 353.147>
AnchorPoint: "si_hal" 696 525 basechar 0
LayerCount: 4
Back
Fore
SplineSet
639.759765625 14.6123046875 m 0x6c
 752.765618081 14.6123046875 815.623046875 126.874982693 815.623046875 242.600585938 c 0
 815.623046875 369.885961346 752.03182602 461.533203125 609.9375 461.533203125 c 0
 531.351906978 461.533203125 431.166532992 405.019718437 414.877929688 258.823242188 c 1
 357.610351562 248.01171875 l 1
 363.384765625 434.15625 483.154296875 556.603515625 626.6796875 556.603515625 c 0
 804.309570312 556.603515625 884.870117188 400.960187959 884.870117188 271.375 c 0
 884.870117188 90.9257275451 792.570021811 -40.0492031499 637.411132812 -41.814453125 c 0
 596.535616579 -42.2222455833 558.654883407 -35.9146271667 528.682617188 -17.138671875 c 5
 550.452148438 37.328125 l 1
 574.99609375 25.2412109375 603.875 14.6123046875 639.759765625 14.6123046875 c 0x6c
97.974609375 261.841796875 m 0
 97.974609375 137.495184926 188.89869003 74.838450943 270.783203125 62.955078125 c 0
 372.667523275 48.1692619202 449.839002918 86.5343653811 454 164 c 0
 455.181640625 184.172851562 442 247 358 247 c 1
 406 295 l 1
 466 295 522.576171875 240.21484375 523 166 c 0
 523.525390625 73.953125 463.666992188 -44.0048828125 291.598632812 -44.0048828125 c 0
 141.181640625 -44.0048828125 29.9951171875 65.9140625 29.9951171875 225.564453125 c 0
 29.9951171875 449.732421875 186.2890625 552 313 552 c 0
 316.879882812 491.879882812 l 0x9c
 241.916015625 491.879882812 97.974609375 444.774292556 97.974609375 261.841796875 c 0
EndSplineSet
Layer: 2
Layer: 3
EndChar

StartChar: si_Da
Encoding: 40 3503 46
GlifName: si_D_a
Width: 553
VWidth: -17
Flags: HW
HStem: 2 44<358.492 420.593 447.794 467>
VStem: 239 97<-230.24 -107.365>
AnchorPoint: "si_hal" 407 483 basechar 0
LayerCount: 4
Back
SplineSet
130 199 m 0
 120 72 247 -23 477 46 c 1
 493 2 l 1
 365 -30 324 -115 324 -162 c 0
 324 -214 360 -267 444 -262 c 0
 470 -260 505 -247 532 -226 c 1
 549 -262 l 1
 499 -299 452 -319 395 -319 c 0
 311 -318 240 -264 239 -186 c 0
 238 -121 288 -34 417 5 c 1
 424 9 412 -23 421 -19 c 1
 170 -78 27 19 29 165 c 0
 31 313 180 392 325 394 c 0
 387 395 407 387 436 382 c 1
 436 387 397 363 396 368 c 1
 408 475 341 506 266 498 c 1
 210 409 l 1
 164 412 144 452 153 488 c 0
 169 550 230 568 293 568 c 0
 365 568 453 523 461 444 c 0
 467 389 450 335 450 335 c 1
 450 335 l 1
 450 333 l 1
 257 363 139 309 130 199 c 0
EndSplineSet
Fore
SplineSet
120 199 m 0
 108.580776263 72.1197362501 247 -23 477 46 c 1
 493 2 l 1
 362.222929936 -40 319 -125 319 -172 c 4
 319 -224 359.689453125 -261.381835938 403 -265 c 4
 433.311523438 -267.532226562 468 -257 495 -236 c 5
 512 -272 l 5
 472 -311 425 -320 378 -319 c 4
 294.013055852 -317.213043742 223 -264 222 -186 c 4
 220.904494382 -121 275.679775281 -34 417 5 c 1
 424 9 412 -23 421 -19 c 1
 170 -78 -3 19 -1 165 c 0
 1 313 180.007032395 386.457507926 325 384 c 0
 384 383 398 387 427 382 c 1
 427 387 397 363 396 368 c 1
 408 475 321 496 246 488 c 1
 190 399 l 1
 144 402 123.556640625 442.114257812 133 478 c 0
 148 535 201 561 264 561 c 0
 336 561 434 518 448 434 c 0
 457.095703125 379.426757812 441 335 441 335 c 1
 441 333 l 1
 248 353 129 299 120 199 c 0
EndSplineSet
Layer: 2
Layer: 3
EndChar

StartChar: si_Ba
Encoding: 46 3510 50
GlifName: si_B_a
Width: 873
VWidth: -24
Flags: HW
HStem: -52.7871 49.4873<191.248 316.381> -49 98.7309<504.304 625.834> -29.3828 11.2891<244.867 281.706> 145.939 42.666<227.272 317.129> 342.591 112.211<230.33 421.417> 677 49<275.56 505.317>
VStem: 72.5234 53.4766<67.4514 246.225> 164.39 45.5879<21.7576 129.034> 427.739 57.5479<67.1342 157.558>
LayerCount: 4
Back
SplineSet
316.736328125 342.590820312 m 4x5f80
 201.237304688 342.215820312 125.991210938 259.772460938 126 166 c 4
 126.01171875 42.544921875 193.912109375 -3.125 271 -3.2998046875 c 4x9f80
 321.034179688 -3.4130859375 338.189453125 47.880859375 334.409179688 81.7451171875 c 4
 331.948242188 103.793945312 316.87890625 146.455078125 272.8828125 145.939453125 c 4
 249.821289062 145.668945312 208.545898438 132.419921875 209.977539062 65.763671875 c 4
 210.686523438 32.755859375 244.8671875 -11.1669921875 288.888671875 -18.09375 c 4
 281.706054688 -29.3828125 l 4x3f80
 218.467773438 -26.9140625 165.4296875 21.8857421875 164.389648438 67.98828125 c 4
 162.702148438 142.778320312 218.02734375 188.259765625 278.249023438 188.60546875 c 4
 342.311523438 188.973632812 385.901367188 143.564453125 387.776367188 76.1171875 c 4
 389.609375 10.2099609375 348.709170461 -53.8599100135 257 -52.787109375 c 4x9f80
 133.947265625 -51.34765625 73.291015625 64.3955078125 72.5234375 170.9375 c 4
 71.298828125 341.005859375 187.118841749 453.332021229 332.396484375 454.801757812 c 4
 464.0625 456.133789062 583.112304688 369.021484375 574.779296875 212 c 5
 570.680664062 209.66796875 566.576111842 200.340614549 562.502236993 198 c 5
 522.31928452 178.913182984 485.098248841 150.546820313 485.287109375 108 c 4
 485.405732189 81.2764520307 509.261307911 50.3817984073 560.999998447 49.7308624797 c 4
 676.770703547 48.2743255913 743.06362433 214.466826668 729 377 c 4
 718.895507812 493.782226562 624.005859375 674.411132812 387 677 c 4
 240.994140625 678.594726562 135 581 132 581 c 5
 108 613 l 4
 108 613 228.178710938 718.440429688 385 726 c 4
 656 739.063476562 841 539 831 302 c 4
 822.189453125 93.185546875 729 -48.9990234375 569 -49 c 4
 468.690429685 -49.000612241 425.563742922 18.7821862516 427.739257812 82 c 4
 430.530273438 163.103515625 483.240234375 199.063476562 515.032226562 226 c 5
 504.98046875 295.725585938 407.244140625 342.884765625 316.736328125 342.590820312 c 4x5f80
EndSplineSet
Fore
SplineSet
346.736328125 332.590820312 m 4x5f80
 231.237304688 332.215820312 165.991210938 259.772460938 166 166 c 0
 166.010742188 42.544921875 219.228522238 -3.12230554834 291 -3.2998046875 c 0x9f80
 326.143554688 -3.38671875 349.593281804 35.8447111996 344.409179688 61.7451171875 c 0
 340.599569401 80.7783944728 332.728515625 111.390625 288.8828125 110.939453125 c 0
 269.487195097 110.739872403 238.773485181 90.45514721 239.977539062 55.763671875 c 0
 240.98616372 26.7029479737 270.445802685 -11.9930082583 308.888671875 -18.09375 c 0
 301.706054688 -29.3828125 l 0x3f80
 243.858177327 -27.1676028378 195.576838001 16.6265631434 194.389648438 57.98828125 c 0
 192.850357577 111.617218557 238.317000131 157.216045644 293.249023438 157.60546875 c 0
 341.462890625 157.947265625 390.072265625 127.767578125 391.776367188 65.1171875 c 0
 393.46875 9.435546875 361.696498949 -53.693460847 277 -52.787109375 c 0x9f80
 160.617637878 -51.34765625 110.34626269 51.4404195966 113.5234375 157.9375 c 0
 118.298828125 318.005859375 207.119140625 443.33203125 362.396484375 444.801757812 c 4
 477.768554688 445.893554688 584.081054688 365.548828125 576.779296875 204 c 1
 572.680664062 201.66796875 568.576171875 192.340820312 564.501953125 190 c 1
 532.125 182.859375 502.134765625 139.58984375 502.287109375 108 c 0
 502.444335938 80.8173828125 525.844539397 50.3925802715 581 49.73046875 c 0
 676.100456476 48.4921928545 730.552262736 214.466631128 719 377 c 0
 709.1909608 493.782226562 637.075195312 651.302734375 417 654 c 0
 280.995005945 655.666892058 189 585 186 585 c 1
 161 627 l 0
 161 627 262.178710938 702.440429688 409 710 c 0
 673.894823744 723.638969241 830.775784753 539 821 302 c 0
 813.19829437 93.185546875 730.679389313 -48.9990234375 589 -49 c 0
 481.589407224 -49.000612241 435.409735882 18.7821862516 437.739257812 82 c 0
 440.210543721 163.103515625 486.882222114 199.063476562 515.032226562 226 c 1
 506.501189737 295.725585938 423.551757812 332.884765625 346.736328125 332.590820312 c 4x5f80
EndSplineSet
Layer: 2
Layer: 3
EndChar

StartChar: si_Ma
Encoding: 48 3512 52
GlifName: si_M_a
Width: 785
VWidth: -14
Flags: HMW
LayerCount: 4
Back
SplineSet
216 318 m 4
 216 362 221.049804688 407.845703125 185 407 c 4
 133.951171875 405.802734375 102.100585938 334.032226562 107 262 c 4
 115.005942822 144.294927551 228.005739432 56.7358077964 400 60 c 4
 566.975585938 63.1689453125 648.875976562 189.346679688 659 314 c 4
 675 511 562 652 365 655 c 4
 238.999023438 656.918945312 138 581 135 581 c 5
 116 624 l 4
 116 624 230.998046875 706.665039062 378 706 c 4
 599 705 736 549 726 312 c 4
 717.189453125 103.185546875 607 -55 376 -55 c 4
 143 -55 50.5244140625 92.1689453125 48 238 c 4
 45.66015625 373.161132812 106.9375 454.219726562 188 456 c 4
 247.59765625 457.30859375 265.819335938 410.991210938 265.819335938 350 c 4
 265.819335938 250 320.909179688 219.501953125 394 218 c 4
 479.239257812 216.248046875 509 284 509 329 c 4
 509 362.241210938 490.005859375 435.412109375 411 436 c 4
 372.19921875 436.2890625 350.369140625 410.014648438 350 387 c 4
 349.565429688 359.922851562 365 337 398 335.561523438 c 4
 456.053710938 333.03125 463.008789062 399.986328125 450 429.561523438 c 5
 489 418.561523438 l 5
 495.25 365.91796875 477.426757812 289.571289062 396 291 c 4
 350.923828125 291.791015625 304.796643992 319.097679063 304 378.856445312 c 4
 303.331054688 429.036132812 338 480 416 480 c 4
 495 480 559 410 560 334 c 4
 560.650390625 284.58203125 529.993164062 162.740234375 393 161 c 4
 277.6796875 159.53515625 216 232.529296875 216 318 c 4
EndSplineSet
Fore
SplineSet
216 318 m 0
 216 362 214.049804688 407.845703125 185 407 c 0
 140.498645583 405.704468588 112.728715946 334.032226562 117 262 c 0
 125.005942822 144.294927551 238.005739432 56.7358077964 410 60 c 0
 570.528652118 63.1689453125 649.266865498 189.346679688 659 314 c 0
 675 511 562 652 365 655 c 0
 238.999023438 656.918945312 138 581 135 581 c 1
 116 624 l 0
 116 624 230.998046875 706.665039062 378 706 c 0
 599 705 736 549 726 312 c 0
 717.189453125 103.185546875 607 -55 376 -55 c 0
 143 -55 50.5244140625 92.1689453125 48 238 c 0
 45.66015625 373.161132812 106.9375 454.219726562 188 456 c 0
 245.300117128 457.30859375 262.819335938 410.991210938 262.819335938 350 c 4
 262.819335938 257.575757576 310.602872214 229.388168797 374 228 c 0
 462.204101562 226.40588049 491.239913228 288.094005866 493 329 c 0
 495.090909091 374.241210938 475.168765944 435.412109375 401 436 c 0
 362.835297131 436.2890625 341.363089139 410.014648438 341 387 c 0
 340.619750977 362.028446459 354.101935082 339.252090745 383 339.561523438 c 0
 431.637189364 340.082317356 441.75794396 405.35706865 430 435.561523438 c 1
 472 424.561523438 l 1
 478.451612903 369.854511319 460.053427419 290.515288205 376 292 c 0
 335.823412024 292.782012124 294.894498483 319.780370339 294 378.856445312 c 0
 293.331054688 423.036132812 328 480 406 480 c 0
 488.267412935 480 541.083333333 419 538 334 c 0
 536.415496635 290.319096425 508.352527367 182.53905121 373 181 c 0
 270.710231285 179.721760549 216 243.417284534 216 318 c 0
EndSplineSet
Layer: 2
SplineSet
185 418 m 5
 143.951171875 386.802734375 119.327148438 320.063476562 122 258 c 4
 127.50390625 130.204101562 246.995117188 60.369140625 380 60 c 4
 574.99609375 59.458984375 658.291992188 192.06640625 664 317 c 4
 673 514 567.998073659 663.87606425 371 667 c 4
 249.99937085 668.918791307 156 595 153 595 c 5
 135 621 l 4
 135 621 239.998046875 706.665039062 387 706 c 4
 608 705 746 549 736 312 c 4
 727.189453125 103.185546875 604 -59 383 -59 c 4
 160 -59 60.4697265625 63.16796875 58 209 c 4
 55.66015625 347.161132812 116.9375 412.219726562 170 451 c 4
 185 450.357449652 l 5
 200.462890625 436 l 5
 197.671875 339.133789062 244.944335938 230.7109375 378 230 c 4
 473.00390625 229.4921875 497 298 497 343 c 4
 497 396.241210938 452.006835938 441.466796875 389 442 c 4
 346.19921875 442.362304688 325.262695312 421.0390625 325 396 c 4
 324.715820312 368.926757812 341 353 370 351.561523438 c 4
 428.037109375 348.682617188 415.008789062 415.986328125 416 445.561523438 c 5
 416.514648438 440.146484375 454.958984375 443.584960938 443 435.561523438 c 5
 459.25 412.91796875 457.431640625 308.831054688 366 310 c 4
 310.922851562 310.704101562 284.73828125 346.096679688 284 385.856445312 c 4
 282.995117188 440.03125 328 481 391 481 c 4
 461 481 542 438 540 334 c 4
 539.049804688 284.586914062 504 184 371 184 c 4
 240.788085938 184 156.149414062 277.543945312 164 419 c 5
 185 418 l 5
EndSplineSet
Layer: 3
EndChar

StartChar: si_Ya
Encoding: 50 3514 54
GlifName: si_Y_a
Width: 850
VWidth: -24
Flags: HWO
HStem: -35 99<182.222 313.468 494.493 645.379> 126 89<373 424.052> 361 51<198.094 337.786> 501 56<538.302 659.872>
VStem: 51 71<122.458 276.578> 373 57<129.35 215> 449 61<347.668 472.518> 677 70<371.463 483.193> 701 70<120.302 268.428>
AnchorPoint: "si_hal" 692 546 basechar 0
LayerCount: 4
Back
SplineSet
514 363 m 1
 502 381 l 1
 598 407 771 371 771 186 c 0
 771 64 690 -35 565 -35 c 0
 440 -35 398 61 383 126 c 1
 381 123 430 129 428 126 c 1
 401 25 338 -34 237 -34 c 0
 101 -35 50 65 51 164 c 0
 52 348 177 412 274 412 c 0
 300 412 328 409 352 399 c 1
 340 349 l 1
 313 354 290 364 259 361 c 0
 199 355 122 327 122 194 c 0
 122 114 178 68 246 69 c 0
 306 70 382 91 382 215 c 1
 440 215 l 1
 436 91 504 64 574 64 c 0
 668 64 700 129 701 195 c 0
 702 281 625 367 458 332 c 1
 453 351 449 368 449 388 c 0
 447 500 529 557 603 557 c 0
 670 557 737 522 737 442 c 0
 737 346 654 320 654 320 c 1
 638 327 l 1
 638 327 676 381 677 430 c 0
 677 468 658 500 599 501 c 0
 553 502 515 473 510 421 c 0
 506 375 520 347 520 347 c 1
 514 363 l 1
EndSplineSet
Fore
SplineSet
518 394 m 1
 644 430 801 381 801 196 c 0
 801 74 726 -35 591 -35 c 4
 466 -35 415 61 413 126 c 1
 411 123 446 129 444 126 c 1
 437 45 373.997070312 -33.33203125 263 -34 c 0
 111.998046875 -34.9091796875 41.5654296875 84.99609375 41 204 c 0
 40.1689453125 379.000976562 157.079101562 477.887695312 274 482 c 0
 300.003145074 482.914574356 327 481 351 471 c 1
 342 421 l 1
 316 429 296 434 262 431 c 0
 201.934570312 425.700195312 110.400390625 368.005859375 112 234 c 0
 113.194335938 134.009765625 187.953125 80.6005859375 266 79 c 0
 335.955078125 77.5654296875 396 111 398 215 c 1
 454 215 l 1
 454 118 524 74 604 74 c 0
 685 74 730 129 731 205 c 0xfe80
 732.131557495 290.998369622 675 395 488 349 c 1
 483 368 480.703199991 368.072560109 479 388 c 0
 469 505 558.008789062 576.87890625 650 577 c 0
 716.007518134 577.0868898 777 542 777 462 c 0
 777 366 684 340 684 340 c 1
 658 357 l 1
 658 357 709.208984375 370.997070312 710 430 c 0
 710.643554688 477.994140625 659.1015625 507.125 615 507 c 0
 569.095703125 506.870117188 528 481 523 429 c 0
 519 383 536 367 536 367 c 1
 518 394 l 1
EndSplineSet
Layer: 2
Layer: 3
EndChar

StartChar: si_La
Encoding: 52 3517 55
GlifName: si_L_a
Width: 904
VWidth: -5
Flags: HW
HStem: -262 60<401.045 614.591> 77 101<541.728 694.218> 294 54<295 611> 508 56<362.925 593.469>
VStem: 57 126<27.3245 268.374> 446 71<201.315 278.76> 741 68<222.195 381.224>
AnchorPoint: "si_hal" 642 516 basechar 0
LayerCount: 4
Back
SplineSet
295 348 m 1
 611 348 l 1
 611 294 l 1
 295 294 l 1
 295 348 l 1
610 295 m 1
 529 295 507 262 507 229 c 0
 508 188 565 167 615 168 c 0
 698 170 741 225 741 300 c 0
 741 399 642 507 477 508 c 0
 294 509 177 357 173 165 c 0
 169 -45 280 -191 481 -193 c 0
 600.998046875 -194.194335938 706 -132 752 -83 c 0
 786 -122 l 0
 747 -174 613.999023438 -262.51171875 460 -262 c 0
 159 -261 46.328125 -82.7841796875 57 144 c 0
 69 399 248 564 481 564 c 0
 695 564 809 432 809 306 c 0
 809 162 722 77 602 77 c 0
 499 77 447 150 446 213 c 0
 445 273 488 323 528 327 c 1
 610 295 l 1
EndSplineSet
Fore
SplineSet
335 348 m 1
 601 348 l 1
 601 294 l 1
 335 294 l 1
 335 348 l 1
600 295 m 1
 527.709677419 295 517 262 517 239 c 0
 517 197.987806691 575.00875944 176.630376971 625 178 c 0
 710.586206897 180 761 225 761 300 c 0
 761 399 658.693415076 507.187187053 481 508 c 0
 278 509 180.942627929 346.999393802 183 155 c 0
 185.129595588 -49.1432756696 308.321128546 -189.999460267 514 -192 c 0
 633.99831422 -193.167166048 725 -131 771 -82 c 0
 806 -122 l 0
 767 -174 647.998718967 -262.548038146 494 -262 c 0
 213 -261 57.8903257877 -93.0330758717 57 134 c 0
 56 389 250 564 493 564 c 0
 720.544303797 564 829 422 829 296 c 0
 829 152 733.594202899 77 602 77 c 0
 499 77 447.049986445 150.000813271 446 213 c 0
 445 273 488 323 528 327 c 1
 600 295 l 1
EndSplineSet
Layer: 2
Layer: 3
EndChar

StartChar: si_Halant
Encoding: 60 3530 61
GlifName: si_H_alant
Width: -3
VWidth: -36
Flags: W
VStem: -22 49<521.518 686 711.097 866>
AnchorPoint: "si_hal" -4 513 mark 0
LayerCount: 4
Back
SplineSet
27 866 m 1
 27 820.333333333 27 774.666666667 27 729 c 1
 43 708 61.9816697278 706.276759429 75 707 c 0
 93 708 108 727 105 767 c 0
 102 806 74 850 27 866 c 1
5 685 m 1
 4.828125 683.069335938 24.6865234375 688.06640625 24.572265625 686 c 1
 22.0244140625 639.911132812 33.3857421875 532.184570312 42 514 c 5
 -17 514 l 5
 -24 565 -22 670 -22 737 c 1
 -23 920 l 1
 53 911 168 868 164 743 c 0
 162 689 124.046875 657 81 657 c 0
 40 657 14 679 5 685 c 1
EndSplineSet
Fore
SplineSet
27 866 m 1
 27 820.333333333 27 774.666666667 27 729 c 1
 43 708 61.9816697278 706.276759429 75 707 c 0
 93 708 108 727 105 767 c 0
 102 806 74 850 27 866 c 1
5 685 m 1
 4.828125 683.069335938 24.6865234375 688.06640625 24.572265625 686 c 1
 22.0244140625 639.911132812 33.3857421875 532.184570312 42 514 c 5
 -17 514 l 5
 -24 565 -22 670 -22 737 c 1
 -23 920 l 1
 53 911 168 868 164 743 c 0
 162 689 124.046875 657 81 657 c 0
 40 657 14 679 5 685 c 1
EndSplineSet
Layer: 2
Layer: 3
EndChar

StartChar: si_MatraAa
Encoding: 61 3535 62
GlifName: si_M_atraA_a
Width: 362
VWidth: -11
Flags: W
HStem: -33 51<71.2941 175.26> 447 52<71.5288 174.539>
VStem: -3 43<390.233 413.688> 225 97<114.561 378.943>
LayerCount: 4
Back
SplineSet
-7 398 m 9
 30 376 l 17
 36 402 67 446 115 446 c 0
 180 445 226 383 225 238 c 0
 224 140 197 20 121 18 c 0
 67 17 48 47 28 76 c 9
 -7 47 l 17
 7 12 45 -35 121 -33 c 0
 267 -29 321 136 322 240 c 0
 324 381 274 500 141 499 c 0
 74 498 15 461 -7 398 c 9
EndSplineSet
Fore
SplineSet
-3 393 m 9
 40 376 l 17
 46 402 77 447 118 447 c 0
 183.0078125 447 228 383 225 238 c 0
 222.972742086 140.015867482 207.006683944 19.7274246351 131 18 c 0
 87 17 56 47 43 76 c 9
 3 47 l 17
 17 12 55 -35 131 -33 c 0
 277 -29 319.050695549 136.037018111 322 240 c 0
 326 381 268 500 141 499 c 0
 73.9943230288 498.472396244 18 459 -3 393 c 9
EndSplineSet
Layer: 2
Layer: 3
EndChar

StartChar: si_MatraAe
Encoding: 62 3536 63
GlifName: si_M_atraA_e
Width: 362
VWidth: -11
Flags: W
HStem: -33 51<71.2941 175.26> 447 52<71.5288 174.539>
VStem: -3 43<390.233 413.688> 225 97<114.561 378.943>
LayerCount: 4
Back
Fore
SplineSet
-3 393 m 9
 40 376 l 17
 46 402 77 447 118 447 c 0
 183.0078125 447 228 383 225 238 c 0
 222.972742086 140.015867482 207.006683944 19.7274246351 131 18 c 0
 87 17 56 47 43 76 c 9
 3 47 l 17
 17 12 55 -35 131 -33 c 0
 277 -29 319.050695549 136.037018111 322 240 c 0
 326 381 268 500 141 499 c 0
 73.9943230288 498.472396244 18 459 -3 393 c 9
EndSplineSet
Layer: 2
Layer: 3
EndChar

StartChar: si_MatraI
Encoding: 64 3538 65
GlifName: si_M_atraI_
Width: 0
VWidth: -28
Flags: W
HStem: 531 35<-202.188 -181.6> 703 97<-159.243 141.33>
AnchorPoint: "si_MaI" 0 559 mark 0
LayerCount: 4
Back
SplineSet
-165 409 m 13
 -143 446 l 21
 -169 452 -213 484 -213 538 c 4
 -214 603 -145 642 0 641 c 4
 98 640 203 609 205 543 c 4
 206 489 176 462 147 442 c 13
 176 407 l 21
 211 421 258 461 256 537 c 4
 252 683 102 737 -2 738 c 4
 -143 740 -267 690 -266 557 c 4
 -265 490 -228 429 -165 409 c 13
EndSplineSet
Fore
SplineSet
-185 531 m 21
 -248 551 -291.833007812 588.24609375 -286 655 c 4
 -277 758 -139 802 2 800 c 4
 106 799 249.903320312 764.702148438 266 659 c 4
 275.955078125 593.627929688 231 543 196 529 c 13
 177 554 l 21
 200 574 214.749023438 594.73046875 205 635 c 4
 190.84375 693.477539062 68 701.96875 0 703 c 4
 -94.994140625 704.44140625 -214 706 -223 641 c 4
 -230.40625 587.510742188 -191 576 -168 566 c 13
 -185 531 l 21
EndSplineSet
Layer: 2
Layer: 3
EndChar

StartChar: si_MatraIi
Encoding: 65 3539 66
GlifName: si_M_atraI_i
Width: 0
VWidth: -28
Flags: W
HStem: 409 37<-19 -3> 641 97<10 271>
VStem: -109 54<478 593> 362 51<474 588>
AnchorPoint: "si_MaI" 0 559 mark 0
LayerCount: 4
Back
Fore
SplineSet
-185 531 m 21
 -248 551 -291.833007812 588.24609375 -286 655 c 4
 -277 758 -139 802 2 800 c 4
 106 799 249.903320312 764.702148438 266 659 c 4
 275.955078125 593.627929688 231 543 196 529 c 13
 177 554 l 21
 200 574 214.749023438 594.73046875 205 635 c 4
 190.84375 693.477539062 68 701.96875 0 703 c 4
 -94.994140625 704.44140625 -214 706 -223 641 c 4
 -230.40625 587.510742188 -191 576 -168 566 c 13
 -185 531 l 21
EndSplineSet
Layer: 2
Layer: 3
EndChar

StartChar: si_MatraU
Encoding: 66 3540 67
GlifName: si_M_atraU_
Width: 0
VWidth: 0
Flags: W
HStem: -370.587 85.3398<-418.305 -35>
VStem: -546 118.19<-273.371 -204.358> -35 63<-287 169>
AnchorPoint: "si_MaU" 22 169.28 mark 0
LayerCount: 4
Back
Fore
SplineSet
-388 -115 m 17
 -361.227539062 -160 l 1
 -361.23046875 -152.99609375 -427.812711241 -191.887525396 -427.809570312 -226 c 0
 -427.80528394 -272.552734178 -403.698875123 -285.247071992 -352 -285.247070312 c 1
 -35 -287 l 9
 -35 169 l 25
 22 169 l 25
 28 -367 l 17
 28 -367 -247.995117188 -369.6796875 -424 -370.586914062 c 0
 -504 -371 -545.244140625 -321.6015625 -546 -271 c 0
 -547.62890625 -161.938476562 -388 -115 -388 -115 c 17
EndSplineSet
Layer: 2
Layer: 3
EndChar

StartChar: si_MatraUu
Encoding: 67 3542 68
GlifName: si_M_atraU_u
Width: 0
VWidth: 0
Flags: W
AnchorPoint: "si_MaU" -1 164 mark 0
LayerCount: 4
Back
Fore
SplineSet
-448 -165 m 25
 -436 -251 l 25
 88 -247 l 25
 82 129 l 25
 -5 129 l 25
 -5 -167 l 25
 -448 -165 l 25
EndSplineSet
Layer: 2
Layer: 3
EndChar

StartChar: si_MatraE
Encoding: 69 3545 70
GlifName: si_M_atraE_
Width: 573
VWidth: -10
Flags: HW
HStem: 321 44<335 364.551> 485 51<246.533 456.728>
VStem: 233 51<213.173 299.922> 381 48<214.138 304.992>
LayerCount: 4
Back
SplineSet
321 157 m 0
 263.09765625 160.356445312 233 204 233 247 c 0
 233 321 297.996232903 364.285672889 366 365 c 0
 457.000474036 365.955889776 551 305 546 172 c 0
 542 72 461 -44 295 -44 c 0
 121 -44 29 78 38 244 c 0
 48 418 172.997006015 536 340 536 c 0
 456 536 519 479 519 479 c 0
 497 442 l 1
 495 442 431 493 334 492 c 0
 208 490 112 395 112 248 c 0
 112 148 166.99662166 46 313 46 c 0
 415 46 481 101 486 172 c 0
 492.13137524 259.065528412 431 314 362 313 c 0
 308 312 284 287 284 253 c 0
 284 229 302 206 330 206 c 0
 363 206 381 231 381 256 c 0
 381 293 352 314 345 314 c 1
 372 320 404.418945312 313.581054688 406 312 c 0
 415 303 429 282 429 253 c 0
 429 208 390 153 321 157 c 0
EndSplineSet
Fore
SplineSet
321 157 m 0
 263.080620987 160.048388369 233 204 233 247 c 0
 233 321 295.996232903 364.285672889 366 365 c 0
 457.000756775 365.928582995 551 305 546 172 c 0
 542 72 468 -44 302 -44 c 0
 125 -44 23.802590005 78.3635500578 38 244 c 0
 53 419 182.997070312 536 350 536 c 0
 456 536 529 479 529 479 c 0
 507 445 l 1
 505 445 451 496 344 495 c 0
 217.989257812 493.822265625 115 405 112 258 c 0
 109.959614848 158.021127571 171.190846835 64.1616407008 302 56 c 0
 383.952148438 50.88671875 472 86 487 174 c 0
 501.666015625 260.040039062 432 320 363 319 c 0
 309 318 284 287 284 253 c 0
 284 229 302.012846984 206.848095546 330 206 c 0
 363 205 381 231 381 256 c 0
 381 297 342 321 335 321 c 1
 362 327 394.418945312 324.581054688 396 323 c 0
 405 314 429 300 429 253 c 0
 429 208 397 153 321 157 c 0
EndSplineSet
Layer: 2
Layer: 3
EndChar

StartChar: si_VI
Encoding: 381 -1 79
GlifName: si_V_I_
Width: 726
VWidth: -14
Flags: W
HStem: -58 101<209.906 445.664> 438 63<212 293.758> 592.443 53.6885<156.24 459.357> 801 76<222.121 467.213>
VStem: 46 83<107.904 222.889> 327 57<328.374 405.025> 607 75<211.107 321 321 443.422>
LayerCount: 4
Back
SplineSet
92.1494140625 693.880859375 m 0
 72.1494140625 830 233.120117188 859 364 859 c 0
 586.331054688 859 659.389648438 774.221679688 668 697 c 0
 677.753408289 609.526850353 643.574014414 559.895032663 574 526 c 25
 542 572 l 25
 562 608 580.004882812 643.44140625 572 684 c 0
 560.174255446 743.917875177 447 790 370 791 c 24
 255.20703125 792.114257812 151.95703125 773.48046875 165.40625 703.064453125 c 4
 170.092773438 678.52734375 204.534179688 620.26953125 333 630 c 0
 549.3828125 646.389648438 680 537 680 321 c 0
 680 107 567 -56 321 -58 c 0
 185 -59 46 8 46 137 c 0
 46 291 205 335 327 328 c 1
 337 388 304 438 212 438 c 1
 186 357 l 1
 135 350 100 379 109 425 c 0
 119 481 177 501 224 501 c 0
 300 501 383 469 384 359 c 0
 384 323 376 272 376 272 c 1
 230 288 127 252 129 158 c 0
 130 94 203 42 343 43 c 0
 512 44 609 173 609 326 c 0
 609 510 515.472834748 583.433285344 322 569 c 0
 176.643554688 558.15625 104.331437334 610.970532437 92.1494140625 693.880859375 c 0
EndSplineSet
Fore
SplineSet
682 321 m 0
 682 107 567 -56 321 -58 c 0
 185 -59 46 8 46 137 c 0
 46 291 205 335 327 328 c 1
 337 388 304 438 212 438 c 1
 186 357 l 1
 135 350 100 379 109 425 c 0
 119 481 177 501 224 501 c 0
 300 501 383 469 384 359 c 0
 384 323 376 272 376 272 c 1
 230 288 127 252 129 158 c 0
 130 94 203 42 343 43 c 0
 512 44 607 173 607 326 c 0
 682 321 l 0
EndSplineSet
Refer: 561 -1 N 1 0 0 1 0 0 2
Layer: 2
Layer: 3
LCarets2: 1 0
Ligature2: "'abvs' Above Base Substitutions in Sinhala lookup 0-1" si_Va si_MatraI
EndChar

StartChar: si_TtI
Encoding: 201 -1 204
GlifName: si_T_tI_
Width: 725
VWidth: -14
Flags: W
HStem: -59 103<219.35 450.494> 343 55<194.078 364.907> 592.443 53.6885<156.24 459.357> 801 76<222.121 467.213>
VStem: 46 71<129.757 266.127> 607 75<209.299 322 321 443.422>
LayerCount: 4
Back
Fore
SplineSet
366 329 m 1
 343 338 300 345 273 343 c 0
 202 338 115.5149564 300.478264259 117 198 c 0
 118.4140625 100.419921875 207 45 340 44 c 0
 534.997070312 42.5341796875 603.875976562 198.346679688 607 323 c 0
 682 322 l 0
 680.189453125 113.185546875 560 -59 320 -59 c 0
 137 -59 40.7906648242 50.1077332517 46 176 c 0
 52 321 165 394 276 398 c 0
 338 400 378 379 378 379 c 1
 366 329 l 1
EndSplineSet
Refer: 561 -1 N 1 0 0 1 0 0 2
Layer: 2
Layer: 3
Ligature2: "'abvs' Above Base Substitutions in Sinhala lookup 0-1" si_Tta si_MatraI
EndChar

StartChar: si_TtIi
Encoding: 202 -1 205
GlifName: si_T_tI_i
Width: 725
VWidth: -14
Flags: W
HStem: -59 103<219.35 450.494> 343 55<194.078 364.907> 592.443 53.6885<156.24 404.297> 801 76<222.122 469.686>
VStem: 46 71<129.757 266.127> 394 52.0371<643.319 730.04> 564 71<639.904 731.519> 607 75<209.299 322 321 443.422>
LayerCount: 4
Back
Fore
SplineSet
366 329 m 1xfd
 343 338 300 345 273 343 c 0
 202 338 115.5149564 300.478264259 117 198 c 0
 118.4140625 100.419921875 207 45 340 44 c 0
 534.997070312 42.5341796875 603.875976562 198.346679688 607 323 c 0
 682 322 l 0
 680.189453125 113.185546875 560 -59 320 -59 c 0
 137 -59 40.7906648242 50.1077332517 46 176 c 0
 52 321 165 394 276 398 c 0
 338 400 378 379 378 379 c 1
 366 329 l 1xfd
EndSplineSet
Refer: 562 -1 S 1 0 0 1 0 0 2
Layer: 2
Layer: 3
EndChar

StartChar: si_DI
Encoding: 261 -1 264
GlifName: si_D_I_
Width: 553
VWidth: -17
Flags: HW
HStem: 2 44<358.492 420.593 447.794 467> 451 35<152.066 158.4> 713 97<192.553 381.441>
VStem: 54 63<520.996 652.946> 239 97<-230.24 -107.365> 445 61<553.19 657.866>
LayerCount: 4
Back
Fore
SplineSet
155 451 m 17
 92 471 54.650390625 537.995117188 54 605 c 0
 53 708 161 812 302 810 c 0
 406 809 503.903320312 734.702148438 506 629 c 0
 507.311394269 562.887282597 461 513 426 499 c 9
 407 524 l 17
 430 544 446.944171091 563.612818363 445 605 c 4
 440.84375 693.477539062 338 711.96875 270 713 c 4
 175.005859375 714.44140625 116 656 117 591 c 0
 117.831054688 537.006835938 149 496 172 486 c 9
 155 451 l 17
EndSplineSet
Refer: 46 3503 N 1 0 0 1 0 0 2
Layer: 2
Layer: 3
Ligature2: "'abvs' Above Base Substitutions in Sinhala lookup 0-1" si_Da si_MatraI
EndChar

StartChar: si_VIi
Encoding: 382 -1 384
GlifName: si_V_I_i
Width: 726
VWidth: -14
Flags: W
HStem: -58 100<211.852 445.682> 428 62<212 293.758> 592.443 53.6885<156.24 404.297> 801 76<222.122 469.686>
VStem: 46 83<107.912 216.652> 327 57<318.386 396.84> 394 52.0371<643.319 730.04> 564 71<639.904 731.519> 607 75<206.693 321 321 443.422>
LayerCount: 4
Back
Fore
SplineSet
376 262 m 1xfe80
 230 278 125 245 129 158 c 0
 131.939782368 94.0597335036 205 41 345 42 c 0
 514 43 607 173 607 326 c 0
 682 321 l 0
 682 107 571.002314781 -56.4236373831 335 -58 c 0
 179 -59.0419921875 49.3495196644 8.04349292099 46 137 c 0
 42 291 205 325 327 318 c 1
 337 378 304 428 212 428 c 1
 186 347 l 1
 135 340 100 369 109 415 c 0
 119 471 177 490 224 490 c 0
 300 490 380 453 384 349 c 0
 385.383592396 313.026597713 376 262 376 262 c 1xfe80
EndSplineSet
Refer: 562 -1 N 1 0 0 1 0 0 2
Layer: 2
Layer: 3
LCarets2: 1 0
Ligature2: "'abvs' Above Base Substitutions in Sinhala lookup 0-2" si_Va si_MatraIi
EndChar

StartChar: I_comp
Encoding: 561 -1 561
GlifName: I__comp
Width: 726
VWidth: -14
Flags: W
HStem: 592.443 53.6885<156.24 459.357> 801 76<222.121 467.213>
VStem: 607 75<321 443.422>
LayerCount: 4
Back
Fore
SplineSet
73.1494140625 703.880859375 m 0
 73.1494140625 815 207.150390625 875.750976562 368 877 c 4
 565.375 878.533203125 650.248046875 776.428710938 631 677 c 0
 618.538085938 612.626953125 563.57421875 569.895507812 504 576 c 9
 470 629 l 17
 520 605 555.004882812 633.44140625 553 684 c 0
 550.580078125 745.025390625 488.841796875 801.115234375 332 801 c 0
 227.033203125 800.922851562 148.092773438 769.6875 143.40625 708.064453125 c 0
 141.170898438 678.671875 153.657226562 657.563476562 186 648.33984375 c 0
 230.94140625 635.522460938 300.30078125 649.194335938 371 646.131835938 c 0
 551.857421875 638.298828125 682 515.607421875 682 321 c 0
 607 321 l 1
 607 484.856445312 518.022460938 584.602539062 367 592.443359375 c 0
 291.883789062 596.34375 221.2109375 584.611328125 165 595.53515625 c 0
 101.021484375 607.96875 73.1494140625 650.7890625 73.1494140625 703.880859375 c 0
EndSplineSet
Layer: 2
Layer: 3
EndChar

StartChar: Ii_comp
Encoding: 562 -1 562
GlifName: I_i_comp
Width: 726
VWidth: -14
Flags: W
HStem: 592.443 53.6885<156.24 404.297> 801 76<222.122 469.686>
VStem: 394 52.0371<643.319 730.04> 564 71<639.904 731.519> 607 75<321 443.422>
LayerCount: 4
Back
Fore
SplineSet
543 742 m 5xf0
 480.828125 758.302734375 446.037109375 721.200195312 446.037109375 687 c 0
 446.037109375 653.5625 471.477783521 631.284572707 507 629.793945312 c 0
 533.105460132 628.698475551 564.620117188 644.154296875 564 684 c 0xf0
 563.049632792 745.065957169 478.841796875 801.115234375 332 801 c 4
 227.033207095 800.917627113 148.092773438 769.6875 143.40625 708.064453125 c 0
 141.170898438 678.671875 153.657226562 657.563476562 186 648.33984375 c 0
 230.94140625 635.522460938 300.30078125 649.194335938 371 646.131835938 c 0
 551.857421875 638.298828125 682 515.607421875 682 321 c 0
 607 321 l 1xe8
 607 484.856445312 518.022460938 584.602539062 367 592.443359375 c 0
 291.883789062 596.34375 221.2109375 584.611328125 165 595.53515625 c 0
 101.021484375 607.96875 73.1494140625 650.7890625 73.1494140625 703.880859375 c 0
 73.1494140625 815 207.15234375 875.526367188 368 877 c 0
 535.375 878.533203125 634.248046875 806.428710938 635 697 c 0
 635.450195312 631.43359375 578.60546875 575.654296875 505 579 c 0
 483 580 393.407908266 591.726646891 394 684.200195312 c 0
 394.398508529 746.439702462 454.563476562 797.881835938 524 776 c 13
 543 742 l 5xf0
EndSplineSet
Layer: 2
Layer: 3
EndChar

StartChar: si_MatraI.alt
Encoding: 563 -1 563
Width: 865
VWidth: -24
Flags: HW
LayerCount: 4
Back
Fore
SplineSet
273 520 m 21x99
 200 530 160.888671875 585.918945312 172 652 c 4
 191 765 320.989257812 808.053710938 462 809 c 4
 611 810 741.903320312 764.702148438 754 652 c 4
 761.056640625 586.251953125 713 525 668 521 c 13
 655 557 l 21
 688 567 711.614257812 594.228515625 703 632 c 4
 691.770507812 681.23828125 581 716.9765625 463 717 c 4
 337.995117188 717.025390625 236 687 227 632 c 4
 218.279296875 578.708984375 259 562 282 552 c 13
 273 520 l 21x99
EndSplineSet
Layer: 2
Layer: 3
EndChar

StartChar: si_MatraIi.alt
Encoding: 564 -1 564
Width: 776
VWidth: -24
Flags: HW
LayerCount: 4
Back
Fore
SplineSet
214 520 m 17
 151 540 107.166992188 577.24609375 113 644 c 0
 122 747 259.990234375 790.13671875 401 789 c 0
 525 788 682.063476562 731.920898438 682 625 c 0
 681.955078125 549.627929688 638.186523438 507.028320312 582 505 c 0
 526.177734375 502.984375 465.423828125 529.80859375 461 586 c 0
 455.676757812 653.612304688 537.657226562 695.563476562 545 692 c 1
 601 682 l 1
 587.119140625 668.837890625 544 630.181640625 544 586 c 0
 544 569 558 549 583 549 c 24
 602 549 622.310546875 561.890625 621 586 c 0
 617.19140625 656.051757812 461 695.96875 393 697 c 0
 298.005859375 698.44140625 185 695 176 630 c 0
 168.59375 576.510742188 208 565 231 555 c 9
 214 520 l 17
EndSplineSet
Layer: 2
Layer: 3
EndChar
